<svg xmlns="http://www.w3.org/2000/svg" width="794.3600000000001" height="547.56" viewBox="17111.332 -21492.406 39.718 27.378"><style>
	.line {
		stroke: #333;
		stroke-width: .09;
		fill: none;
		stroke-linejoin: round;
		stroke-linecap: round;
	}
	.station {
		stroke: none;
	}
	.transit {
		stroke: #555;
		stroke-width: .05;
		fill: #fff;
	}
</style><g><path class="line U1" style="stroke: #55a822;" d="M17123.507 -21477.393L17124.081 -21477.967"></path><path class="line U1" style="stroke: #55a822;" d="M17124.081 -21477.967L17124.591 -21478.191"></path><path class="line U1" style="stroke: #55a822;" d="M17124.615 -21478.258L17125.603 -21477.907"></path><path class="line U2" style="stroke: #ff3300;" d="M17124.567 -21478.123L17125.555 -21477.772"></path><path class="line U1" style="stroke: #55a822;" d="M17125.579 -21477.84L17126.376 -21477.872"></path><path class="line U1" style="stroke: #55a822;" d="M17126.376 -21477.872L17127.397 -21477.84"></path><path class="line U1" style="stroke: #55a822;" d="M17127.397 -21477.84L17128.194 -21477.744"></path><path class="line U1" style="stroke: #55a822;" d="M17128.194 -21477.744L17128.927 -21477.553"></path><path class="line U1" style="stroke: #55a822;" d="M17128.927 -21477.553L17130.234 -21477.648"></path><path class="line U1" style="stroke: #55a822;" d="M17130.234 -21477.648L17131.255 -21477.744"></path><path class="line U1" style="stroke: #55a822;" d="M17131.255 -21477.744L17132.18 -21477.744"></path><path class="line U1" style="stroke: #55a822;" d="M17132.18 -21477.744L17133.359 -21478.063"></path><path class="line U1" style="stroke: #55a822;" d="M17133.359 -21478.063L17133.997 -21478.733"></path><path class="line U2" style="stroke: #ff3300;" d="M17115.663 -21481.602L17116.428 -21480.359"></path><path class="line U2" style="stroke: #ff3300;" d="M17116.428 -21480.359L17117.257 -21480.263"></path><path class="line U2" style="stroke: #ff3300;" d="M17117.257 -21480.263L17118.405 -21479.307"></path><path class="line U2" style="stroke: #ff3300;" d="M17118.405 -21479.307L17119.202 -21479.338"></path><path class="line U2" style="stroke: #ff3300;" d="M17119.202 -21479.338L17120.573 -21479.498"></path><path class="line U2" style="stroke: #ff3300;" d="M17120.573 -21479.498L17121.275 -21479.562"></path><path class="line U2" style="stroke: #ff3300;" d="M17121.275 -21479.562L17121.657 -21479.594"></path><path class="line U2" style="stroke: #ff3300;" d="M17121.657 -21479.594L17122.805 -21479.562"></path><path class="line U2" style="stroke: #ff3300;" d="M17122.805 -21479.562L17123.698 -21478.892"></path><path class="line U2" style="stroke: #ff3300;" d="M17123.698 -21478.892L17124.591 -21478.191"></path><path class="line U2" style="stroke: #ff3300;" d="M17125.579 -21477.84L17126.344 -21477.553"></path><path class="line U2" style="stroke: #ff3300;" d="M17126.344 -21477.553L17127.397 -21477.84"></path><path class="line U2" style="stroke: #ff3300;" d="M17127.397 -21477.84L17127.429 -21478.446"></path><path class="line U2" style="stroke: #ff3300;" d="M17127.429 -21478.446L17127.716 -21479.211"></path><path class="line U2" style="stroke: #ff3300;" d="M17127.716 -21479.211L17128.226 -21479.562"></path><path class="line U2" style="stroke: #ff3300;" d="M17128.226 -21479.562L17128.768 -21479.562"></path><path class="line U2" style="stroke: #ff3300;" d="M17128.768 -21479.562L17129.246 -21479.817"></path><path class="line U2" style="stroke: #ff3300;" d="M17129.246 -21479.817L17129.884 -21479.53"></path><path class="line U2" style="stroke: #ff3300;" d="M17129.884 -21479.53L17130.458 -21479.625"></path><path class="line U2" style="stroke: #ff3300;" d="M17130.458 -21479.625L17130.777 -21480.391"></path><path class="line U2" style="stroke: #ff3300;" d="M17130.777 -21480.391L17130.745 -21481.028"></path><path class="line U2" style="stroke: #ff3300;" d="M17130.745 -21481.028L17130.585 -21481.985"></path><path class="line U2" style="stroke: #ff3300;" d="M17130.585 -21481.985L17130.777 -21482.623"></path><path class="line U2" style="stroke: #ff3300;" d="M17130.777 -21482.623L17130.745 -21483.866"></path><path class="line U2" style="stroke: #ff3300;" d="M17130.745 -21483.866L17131 -21485.078"></path><path class="line U2" style="stroke: #ff3300;" d="M17131 -21485.078L17130.872 -21486.545"></path><path class="line U2" style="stroke: #ff3300;" d="M17130.872 -21486.545L17130.745 -21487.692"></path><path class="line U4" style="stroke: #ffd900;" d="M17124.623 -21474.715L17124.527 -21475.448"></path><path class="line U4" style="stroke: #ffd900;" d="M17124.527 -21475.448L17124.368 -21476.246"></path><path class="line U4" style="stroke: #ffd900;" d="M17124.368 -21476.246L17124.655 -21477.33"></path><path class="line U4" style="stroke: #ffd900;" d="M17124.655 -21477.33L17125.579 -21477.84"></path><path class="line U5" style="stroke: #672f17;" d="M17130.745 -21481.028L17131.606 -21480.837"></path><path class="line U5" style="stroke: #672f17;" d="M17131.606 -21480.837L17132.53 -21480.518"></path><path class="line U5" style="stroke: #672f17;" d="M17132.53 -21480.518L17133.487 -21480.327"></path><path class="line U5" style="stroke: #672f17;" d="M17133.487 -21480.327L17134.443 -21480.167"></path><path class="line U5" style="stroke: #672f17;" d="M17134.443 -21480.167L17135.464 -21480.008"></path><path class="line U5" style="stroke: #672f17;" d="M17135.464 -21480.008L17136.325 -21479.88"></path><path class="line U5" style="stroke: #672f17;" d="M17136.325 -21479.88L17137.6 -21479.657"></path><path class="line U5" style="stroke: #672f17;" d="M17137.6 -21479.657L17138.397 -21479.498"></path><path class="line U5" style="stroke: #672f17;" d="M17138.397 -21479.498L17139.736 -21478.669"></path><path class="line U5" style="stroke: #672f17;" d="M17139.736 -21478.669L17140.629 -21477.489"></path><path class="line U5" style="stroke: #672f17;" d="M17140.629 -21477.489L17142.702 -21477.808"></path><path class="line U5" style="stroke: #672f17;" d="M17142.702 -21477.808L17143.913 -21478.573"></path><path class="line U5" style="stroke: #672f17;" d="M17143.913 -21478.573L17145.125 -21479.753"></path><path class="line U5" style="stroke: #672f17;" d="M17145.125 -21479.753L17146.401 -21480.996"></path><path class="line U5" style="stroke: #672f17;" d="M17146.401 -21480.996L17146.56 -21482.049"></path><path class="line U5" style="stroke: #672f17;" d="M17146.56 -21482.049L17147.102 -21482.846"></path><path class="line U5" style="stroke: #672f17;" d="M17147.102 -21482.846L17147.899 -21483.133"></path><path class="line U5" style="stroke: #672f17;" d="M17147.899 -21483.133L17149.143 -21483.579"></path><path class="line U5" style="stroke: #672f17;" d="M17149.143 -21483.579L17150.45 -21483.42"></path><path class="line U6" style="stroke: #6f4e9c;" d="M17128.545 -21469.103L17128.385 -21469.996"></path><path class="line U6" style="stroke: #6f4e9c;" d="M17128.385 -21469.996L17128.321 -21471.112"></path><path class="line U6" style="stroke: #6f4e9c;" d="M17128.321 -21471.112L17128.321 -21472.132"></path><path class="line U6" style="stroke: #6f4e9c;" d="M17128.321 -21472.132L17128.417 -21472.929"></path><path class="line U6" style="stroke: #6f4e9c;" d="M17128.417 -21472.929L17128.417 -21473.631"></path><path class="line U6" style="stroke: #6f4e9c;" d="M17128.417 -21473.631L17128.481 -21474.715"></path><path class="line U6" style="stroke: #6f4e9c;" d="M17128.481 -21474.715L17128.449 -21475.703"></path><path class="line U6" style="stroke: #6f4e9c;" d="M17128.449 -21475.703L17128.608 -21476.947"></path><path class="line U6" style="stroke: #6f4e9c;" d="M17128.608 -21476.947L17128.927 -21477.553"></path><path class="line U6" style="stroke: #6f4e9c;" d="M17128.927 -21477.553L17128.863 -21478.86"></path><path class="line U6" style="stroke: #6f4e9c;" d="M17128.863 -21478.86L17128.768 -21479.562"></path><path class="line U6" style="stroke: #6f4e9c;" d="M17128.768 -21479.562L17128.8 -21480.04"></path><path class="line U6" style="stroke: #6f4e9c;" d="M17128.8 -21480.04L17128.545 -21480.837"></path><path class="line U6" style="stroke: #6f4e9c;" d="M17128.545 -21480.837L17128.576 -21481.539"></path><path class="line U6" style="stroke: #6f4e9c;" d="M17128.576 -21481.539L17128.098 -21482.431"></path><path class="line U6" style="stroke: #6f4e9c;" d="M17128.098 -21482.431L17127.62 -21483.037"></path><path class="line U6" style="stroke: #6f4e9c;" d="M17127.62 -21483.037L17127.046 -21483.707"></path><path class="line U6" style="stroke: #6f4e9c;" d="M17127.046 -21483.707L17126.663 -21484.121"></path><path class="line U6" style="stroke: #6f4e9c;" d="M17126.663 -21484.121L17126.057 -21484.663"></path><path class="line U6" style="stroke: #6f4e9c;" d="M17126.057 -21484.663L17125.42 -21485.237"></path><path class="line U6" style="stroke: #6f4e9c;" d="M17125.42 -21485.237L17124.431 -21486.13"></path><path class="line U6" style="stroke: #6f4e9c;" d="M17124.431 -21486.13L17123.794 -21486.736"></path><path class="line U6" style="stroke: #6f4e9c;" d="M17123.794 -21486.736L17123.22 -21487.119"></path><path class="line U6" style="stroke: #6f4e9c;" d="M17123.22 -21487.119L17121.817 -21487.661"></path><path class="line U6" style="stroke: #6f4e9c;" d="M17121.817 -21487.661L17121.083 -21488.235"></path><path class="line U6" style="stroke: #6f4e9c;" d="M17121.083 -21488.235L17120.382 -21489"></path><path class="line U6" style="stroke: #6f4e9c;" d="M17120.382 -21489L17119.935 -21489.861"></path><path class="line U6" style="stroke: #6f4e9c;" d="M17119.935 -21489.861L17119.393 -21490.945"></path><path class="line U7" style="stroke: #3690c0;" d="M17138.206 -21465.628L17137.154 -21466.712"></path><path class="line U7" style="stroke: #3690c0;" d="M17137.154 -21466.712L17136.293 -21466.712"></path><path class="line U7" style="stroke: #3690c0;" d="M17136.293 -21466.712L17135.272 -21466.935"></path><path class="line U7" style="stroke: #3690c0;" d="M17135.272 -21466.935L17134.443 -21467.605"></path><path class="line U7" style="stroke: #3690c0;" d="M17134.443 -21467.605L17133.901 -21468.752"></path><path class="line U7" style="stroke: #3690c0;" d="M17133.901 -21468.752L17134.093 -21469.932"></path><path class="line U7" style="stroke: #3690c0;" d="M17134.093 -21469.932L17133.997 -21471.016"></path><path class="line U7" style="stroke: #3690c0;" d="M17133.997 -21471.016L17133.646 -21472.579"></path><path class="line U7" style="stroke: #3690c0;" d="M17133.646 -21472.579L17133.391 -21473.344"></path><path class="line U7" style="stroke: #3690c0;" d="M17133.391 -21473.344L17133.2 -21474.46"></path><path class="line U7" style="stroke: #3690c0;" d="M17133.2 -21474.46L17132.753 -21475.13"></path><path class="line U7" style="stroke: #3690c0;" d="M17132.753 -21475.13L17131.861 -21475.99"></path><path class="line U7" style="stroke: #3690c0;" d="M17131.861 -21475.99L17130.362 -21476.309"></path><path class="line U7" style="stroke: #3690c0;" d="M17130.362 -21476.309L17129.246 -21476.628"></path><path class="line U7" style="stroke: #3690c0;" d="M17129.246 -21476.628L17128.608 -21476.947"></path><path class="line U7" style="stroke: #3690c0;" d="M17128.608 -21476.947L17128.194 -21477.744"></path><path class="line U7" style="stroke: #3690c0;" d="M17128.194 -21477.744L17127.046 -21476.819"></path><path class="line U7" style="stroke: #3690c0;" d="M17127.046 -21476.819L17126.217 -21476.564"></path><path class="line U7" style="stroke: #3690c0;" d="M17126.217 -21476.564L17125.26 -21476.373"></path><path class="line U7" style="stroke: #3690c0;" d="M17125.26 -21476.373L17124.368 -21476.246"></path><path class="line U7" style="stroke: #3690c0;" d="M17124.368 -21476.246L17123.602 -21475.99"></path><path class="line U7" style="stroke: #3690c0;" d="M17123.602 -21475.99L17122.646 -21475.927"></path><path class="line U7" style="stroke: #3690c0;" d="M17122.646 -21475.927L17122.104 -21476.469"></path><path class="line U7" style="stroke: #3690c0;" d="M17122.104 -21476.469L17121.689 -21476.947"></path><path class="line U7" style="stroke: #3690c0;" d="M17121.689 -21476.947L17121.466 -21477.904"></path><path class="line U7" style="stroke: #3690c0;" d="M17121.466 -21477.904L17121.402 -21478.828"></path><path class="line U7" style="stroke: #3690c0;" d="M17121.402 -21478.828L17121.275 -21479.562"></path><path class="line U7" style="stroke: #3690c0;" d="M17121.275 -21479.562L17121.466 -21480.391"></path><path class="line U7" style="stroke: #3690c0;" d="M17121.466 -21480.391L17121.307 -21481.666"></path><path class="line U7" style="stroke: #3690c0;" d="M17121.307 -21481.666L17120.733 -21482.304"></path><path class="line U7" style="stroke: #3690c0;" d="M17120.733 -21482.304L17120.254 -21483.26"></path><path class="line U7" style="stroke: #3690c0;" d="M17120.254 -21483.26L17119.617 -21483.228"></path><path class="line U7" style="stroke: #3690c0;" d="M17119.617 -21483.228L17118.437 -21483.26"></path><path class="line U7" style="stroke: #3690c0;" d="M17118.437 -21483.26L17117.512 -21483.26"></path><path class="line U7" style="stroke: #3690c0;" d="M17117.512 -21483.26L17116.269 -21483.42"></path><path class="line U7" style="stroke: #3690c0;" d="M17116.269 -21483.42L17114.802 -21483.515"></path><path class="line U7" style="stroke: #3690c0;" d="M17114.802 -21483.515L17113.526 -21483.356"></path><path class="line U7" style="stroke: #3690c0;" d="M17113.526 -21483.356L17112.538 -21483.579"></path><path class="line U7" style="stroke: #3690c0;" d="M17112.538 -21483.579L17111.932 -21483.101"></path><path class="line U8" style="stroke: #0a3c85;" d="M17132.466 -21473.121L17132.18 -21473.95"></path><path class="line U8" style="stroke: #0a3c85;" d="M17132.18 -21473.95L17131.956 -21474.938"></path><path class="line U8" style="stroke: #0a3c85;" d="M17131.956 -21474.938L17131.861 -21475.99"></path><path class="line U8" style="stroke: #0a3c85;" d="M17131.861 -21475.99L17131.637 -21476.883"></path><path class="line U8" style="stroke: #0a3c85;" d="M17131.637 -21476.883L17131.255 -21477.744"></path><path class="line U8" style="stroke: #0a3c85;" d="M17131.255 -21477.744L17130.649 -21478.446"></path><path class="line U8" style="stroke: #0a3c85;" d="M17130.649 -21478.446L17131.095 -21479.466"></path><path class="line U8" style="stroke: #0a3c85;" d="M17131.095 -21479.466L17131.255 -21480.136"></path><path class="line U8" style="stroke: #0a3c85;" d="M17131.255 -21480.136L17130.745 -21481.028"></path><path class="line U8" style="stroke: #0a3c85;" d="M17130.745 -21481.028L17130.139 -21481.57"></path><path class="line U8" style="stroke: #0a3c85;" d="M17130.139 -21481.57L17129.788 -21482.208"></path><path class="line U8" style="stroke: #0a3c85;" d="M17129.788 -21482.208L17129.342 -21483.42"></path><path class="line U8" style="stroke: #0a3c85;" d="M17129.342 -21483.42L17129.055 -21483.994"></path><path class="line U8" style="stroke: #0a3c85;" d="M17129.055 -21483.994L17128.64 -21484.982"></path><path class="line U8" style="stroke: #0a3c85;" d="M17128.64 -21484.982L17128.066 -21485.492"></path><path class="line U8" style="stroke: #0a3c85;" d="M17128.066 -21485.492L17127.301 -21486.162"></path><path class="line U8" style="stroke: #0a3c85;" d="M17127.301 -21486.162L17126.504 -21487.182"></path><path class="line U8" style="stroke: #0a3c85;" d="M17126.504 -21487.182L17126.185 -21488.203"></path><path class="line U8" style="stroke: #0a3c85;" d="M17126.185 -21488.203L17125.005 -21488.745"></path><path class="line U8" style="stroke: #0a3c85;" d="M17125.005 -21488.745L17124.272 -21488.872"></path><path class="line U8" style="stroke: #0a3c85;" d="M17124.272 -21488.872L17123.73 -21489.255"></path><path class="line U8" style="stroke: #0a3c85;" d="M17123.73 -21489.255L17123.06 -21490.722"></path><path class="line U8" style="stroke: #0a3c85;" d="M17123.06 -21490.722L17123.889 -21491.806"></path><path class="line U9" style="stroke: #ff7300;" d="M17122.582 -21471.558L17122.996 -21472.228"></path><path class="line U9" style="stroke: #ff7300;" d="M17122.996 -21472.228L17123.315 -21472.802"></path><path class="line U9" style="stroke: #ff7300;" d="M17123.315 -21472.802L17123.347 -21473.727"></path><path class="line U9" style="stroke: #ff7300;" d="M17123.347 -21473.727L17123.379 -21474.587"></path><path class="line U9" style="stroke: #ff7300;" d="M17123.379 -21474.587L17123.602 -21475.99"></path><path class="line U9" style="stroke: #ff7300;" d="M17123.602 -21475.99L17123.57 -21476.724"></path><path class="line U9" style="stroke: #ff7300;" d="M17123.57 -21476.724L17123.507 -21477.393"></path><path class="line U9" style="stroke: #ff7300;" d="M17123.507 -21477.393L17123.602 -21478.446"></path><path class="line U9" style="stroke: #ff7300;" d="M17123.602 -21478.446L17123.698 -21478.892"></path><path class="line U9" style="stroke: #ff7300;" d="M17123.698 -21478.892L17124.559 -21480.518"></path><path class="line U9" style="stroke: #ff7300;" d="M17124.559 -21480.518L17124.463 -21481.666"></path><path class="line U9" style="stroke: #ff7300;" d="M17124.463 -21481.666L17124.463 -21482.591"></path><path class="line U9" style="stroke: #ff7300;" d="M17124.463 -21482.591L17124.686 -21483.165"></path><path class="line U9" style="stroke: #ff7300;" d="M17124.686 -21483.165L17125.197 -21484.026"></path><path class="line U9" style="stroke: #ff7300;" d="M17125.197 -21484.026L17126.057 -21484.663"></path><path class="line U9" style="stroke: #ff7300;" d="M17126.057 -21484.663L17126.791 -21485.397"></path><path class="line U9" style="stroke: #ff7300;" d="M17126.791 -21485.397L17127.301 -21486.162"></path><circle class="station transit" data-id="900000042101" data-label="U Spichernstr." cx="17123.507" cy="-21477.393" r="0.13" fill="#333"></circle><circle class="station" data-id="900000023202" data-label="U Augsburger Str." cx="17124.081" cy="-21477.967" r="0.1" fill="#55a822"></circle><circle class="station transit" data-id="900000056101" data-label="U Wittenbergplatz" cx="17124.591" cy="-21478.191" r="0.185" fill="#333"></circle><circle class="station transit" data-id="900000056102" data-label="U Nollendorfplatz" cx="17125.579" cy="-21477.84" r="0.185" fill="#333"></circle><circle class="station" data-id="900000005201" data-label="U Kurfürstenstr." cx="17126.376" cy="-21477.872" r="0.1" fill="#55a822"></circle><circle class="station transit" data-id="900000017103" data-label="U Gleisdreieck" cx="17127.397" cy="-21477.84" r="0.13" fill="#333"></circle><circle class="station transit" data-id="900000017104" data-label="U Möckernbrücke" cx="17128.194" cy="-21477.744" r="0.13" fill="#333"></circle><circle class="station transit" data-id="900000012103" data-label="U Hallesches Tor" cx="17128.927" cy="-21477.553" r="0.13" fill="#333"></circle><circle class="station" data-id="900000013103" data-label="U Prinzenstr." cx="17130.234" cy="-21477.648" r="0.1" fill="#55a822"></circle><circle class="station transit" data-id="900000013102" data-label="U Kottbusser Tor" cx="17131.255" cy="-21477.744" r="0.13" fill="#333"></circle><circle class="station" data-id="900000014101" data-label="U Görlitzer Bahnhof" cx="17132.18" cy="-21477.744" r="0.1" fill="#55a822"></circle><circle class="station" data-id="900000014102" data-label="U Schlesisches Tor" cx="17133.359" cy="-21478.063" r="0.1" fill="#55a822"></circle><circle class="station" data-id="900000120004" data-label="S+U Warschauer Str." cx="17133.997" cy="-21478.733" r="0.1" fill="#55a822"></circle><circle class="station" data-id="900000025202" data-label="U Ruhleben" cx="17115.663" cy="-21481.602" r="0.1" fill="#ff3300"></circle><circle class="station" data-id="900000025203" data-label="U Olympia-Stadion" cx="17116.428" cy="-21480.359" r="0.1" fill="#ff3300"></circle><circle class="station" data-id="900000026101" data-label="U Neu-Westend" cx="17117.257" cy="-21480.263" r="0.1" fill="#ff3300"></circle><circle class="station" data-id="900000026201" data-label="Berlin, U Theodor-Heuss-Platz" cx="17118.405" cy="-21479.307" r="0.1" fill="#ff3300"></circle><circle class="station" data-id="900000026202" data-label="U Kaiserdamm" cx="17119.202" cy="-21479.338" r="0.1" fill="#ff3300"></circle><circle class="station" data-id="900000022101" data-label="U Sophie-Charlotte-Platz" cx="17120.573" cy="-21479.498" r="0.1" fill="#ff3300"></circle><circle class="station transit" data-id="900000024201" data-label="U Bismarckstr." cx="17121.275" cy="-21479.562" r="0.13" fill="#333"></circle><circle class="station" data-id="900000022201" data-label="U Deutsche Oper" cx="17121.657" cy="-21479.594" r="0.1" fill="#ff3300"></circle><circle class="station" data-id="900000023101" data-label="U Ernst-Reuter-Platz" cx="17122.805" cy="-21479.562" r="0.1" fill="#ff3300"></circle><circle class="station transit" data-id="900000023201" data-label="S+U Zoologischer Garten" cx="17123.698" cy="-21478.892" r="0.13" fill="#333"></circle><circle class="station" data-id="900000056104" data-label="U Bülowstr." cx="17126.344" cy="-21477.553" r="0.1" fill="#ff3300"></circle><circle class="station" data-id="900000005252" data-label="U Mendelssohn-Bartholdy-Park" cx="17127.429" cy="-21478.446" r="0.1" fill="#ff3300"></circle><circle class="station" data-id="900000100720" data-label="S+U Potsdamer Platz (Bln) [U2]" cx="17127.716" cy="-21479.211" r="0.1" fill="#ff3300"></circle><circle class="station" data-id="900000100010" data-label="U Mohrenstr." cx="17128.226" cy="-21479.562" r="0.1" fill="#ff3300"></circle><circle class="station" data-id="900000100012" data-label="U Hausvogteiplatz" cx="17129.246" cy="-21479.817" r="0.1" fill="#ff3300"></circle><circle class="station" data-id="900000100013" data-label="U Spittelmarkt" cx="17129.884" cy="-21479.53" r="0.1" fill="#ff3300"></circle><circle class="station" data-id="900000100014" data-label="U Märkisches Museum" cx="17130.458" cy="-21479.625" r="0.1" fill="#ff3300"></circle><circle class="station" data-id="900000100015" data-label="U Klosterstr." cx="17130.777" cy="-21480.391" r="0.1" fill="#ff3300"></circle><circle class="station" data-id="900000100016" data-label="U Rosa-Luxemburg-Platz" cx="17130.585" cy="-21481.985" r="0.1" fill="#ff3300"></circle><circle class="station" data-id="900000110005" data-label="U Senefelderplatz" cx="17130.777" cy="-21482.623" r="0.1" fill="#ff3300"></circle><circle class="station" data-id="900000110006" data-label="U Eberswalder Str." cx="17130.745" cy="-21483.866" r="0.1" fill="#ff3300"></circle><circle class="station" data-id="900000110001" data-label="S+U Schönhauser Allee" cx="17131" cy="-21485.078" r="0.1" fill="#ff3300"></circle><circle class="station" data-id="900000130011" data-label="U Vinetastr." cx="17130.872" cy="-21486.545" r="0.1" fill="#ff3300"></circle><circle class="station" data-id="900000130002" data-label="S+U Pankow" cx="17130.745" cy="-21487.692" r="0.1" fill="#ff3300"></circle><circle class="station" data-id="900000054105" data-label="S+U Innsbrucker Platz" cx="17124.623" cy="-21474.715" r="0.1" fill="#ffd900"></circle><circle class="station" data-id="900000054101" data-label="U Rathaus Schöneberg" cx="17124.527" cy="-21475.448" r="0.1" fill="#ffd900"></circle><circle class="station transit" data-id="900000055102" data-label="U Bayerischer Platz" cx="17124.368" cy="-21476.246" r="0.13" fill="#333"></circle><circle class="station" data-id="900000055101" data-label="U Viktoria-Luise-Platz" cx="17124.655" cy="-21477.33" r="0.1" fill="#ffd900"></circle><circle class="station" data-id="900000100017" data-label="U Schillingstr." cx="17131.606" cy="-21480.837" r="0.1" fill="#672f17"></circle><circle class="station" data-id="900000120006" data-label="U Strausberger Platz" cx="17132.53" cy="-21480.518" r="0.1" fill="#672f17"></circle><circle class="station" data-id="900000120025" data-label="U Weberwiese" cx="17133.487" cy="-21480.327" r="0.1" fill="#672f17"></circle><circle class="station" data-id="900000120008" data-label="U Frankfurter Tor" cx="17134.443" cy="-21480.167" r="0.1" fill="#672f17"></circle><circle class="station" data-id="900000120009" data-label="U Samariterstr." cx="17135.464" cy="-21480.008" r="0.1" fill="#672f17"></circle><circle class="station" data-id="900000120001" data-label="S+U Frankfurter Allee" cx="17136.325" cy="-21479.88" r="0.1" fill="#672f17"></circle><circle class="station" data-id="900000160005" data-label="U Magdalenenstr." cx="17137.6" cy="-21479.657" r="0.1" fill="#672f17"></circle><circle class="station" data-id="900000160701" data-label="S+U Lichtenberg [U5]" cx="17138.397" cy="-21479.498" r="0.1" fill="#672f17"></circle><circle class="station" data-id="900000161512" data-label="U Friedrichsfelde" cx="17139.736" cy="-21478.669" r="0.1" fill="#672f17"></circle><circle class="station" data-id="900000161002" data-label="U Tierpark" cx="17140.629" cy="-21477.489" r="0.1" fill="#672f17"></circle><circle class="station" data-id="900000171005" data-label="U Biesdorf-Süd" cx="17142.702" cy="-21477.808" r="0.1" fill="#672f17"></circle><circle class="station" data-id="900000171006" data-label="U Elsterwerdaer Platz" cx="17143.913" cy="-21478.573" r="0.1" fill="#672f17"></circle><circle class="station" data-id="900000175001" data-label="S+U Wuhletal" cx="17145.125" cy="-21479.753" r="0.1" fill="#672f17"></circle><circle class="station" data-id="900000175004" data-label="U Kaulsdorf-Nord" cx="17146.401" cy="-21480.996" r="0.1" fill="#672f17"></circle><circle class="station" data-id="900000175005" data-label="U Kienberg (Gärten der Welt)" cx="17146.56" cy="-21482.049" r="0.1" fill="#672f17"></circle><circle class="station" data-id="900000175006" data-label="U Cottbusser Platz" cx="17147.102" cy="-21482.846" r="0.1" fill="#672f17"></circle><circle class="station" data-id="900000175007" data-label="U Hellersdorf" cx="17147.899" cy="-21483.133" r="0.1" fill="#672f17"></circle><circle class="station" data-id="900000175015" data-label="U Louis-Lewin-Str." cx="17149.143" cy="-21483.579" r="0.1" fill="#672f17"></circle><circle class="station" data-id="900000175010" data-label="U Hönow" cx="17150.45" cy="-21483.42" r="0.1" fill="#672f17"></circle><circle class="station" data-id="900000070301" data-label="U Alt-Mariendorf" cx="17128.545" cy="-21469.103" r="0.1" fill="#6f4e9c"></circle><circle class="station" data-id="900000070101" data-label="U Westphalweg" cx="17128.385" cy="-21469.996" r="0.1" fill="#6f4e9c"></circle><circle class="station" data-id="900000069271" data-label="U Ullsteinstr." cx="17128.321" cy="-21471.112" r="0.1" fill="#6f4e9c"></circle><circle class="station" data-id="900000068302" data-label="U Kaiserin-Augusta-Str." cx="17128.321" cy="-21472.132" r="0.1" fill="#6f4e9c"></circle><circle class="station" data-id="900000068202" data-label="U Alt-Tempelhof" cx="17128.417" cy="-21472.929" r="0.1" fill="#6f4e9c"></circle><circle class="station" data-id="900000068201" data-label="S+U Tempelhof" cx="17128.417" cy="-21473.631" r="0.1" fill="#6f4e9c"></circle><circle class="station" data-id="900000068101" data-label="U Paradestr." cx="17128.481" cy="-21474.715" r="0.1" fill="#6f4e9c"></circle><circle class="station" data-id="900000017102" data-label="U Platz der Luftbrücke" cx="17128.449" cy="-21475.703" r="0.1" fill="#6f4e9c"></circle><circle class="station transit" data-id="900000017101" data-label="U Mehringdamm" cx="17128.608" cy="-21476.947" r="0.13" fill="#333"></circle><circle class="station" data-id="900000012102" data-label="U Kochstr./Checkpoint Charlie" cx="17128.863" cy="-21478.86" r="0.1" fill="#6f4e9c"></circle><circle class="station transit" data-id="900000100011" data-label="U Stadtmitte" cx="17128.768" cy="-21479.562" r="0.13" fill="#333"></circle><circle class="station" data-id="900000100027" data-label="U Französische Str." cx="17128.8" cy="-21480.04" r="0.1" fill="#6f4e9c"></circle><circle class="station" data-id="900000100001" data-label="S+U Friedrichstr." cx="17128.545" cy="-21480.837" r="0.1" fill="#6f4e9c"></circle><circle class="station" data-id="900000100019" data-label="U Oranienburger Tor" cx="17128.576" cy="-21481.539" r="0.1" fill="#6f4e9c"></circle><circle class="station" data-id="900000100009" data-label="U Naturkundemuseum" cx="17128.098" cy="-21482.431" r="0.1" fill="#6f4e9c"></circle><circle class="station" data-id="900000100501" data-label="U Schwartzkopffstr." cx="17127.62" cy="-21483.037" r="0.1" fill="#6f4e9c"></circle><circle class="station" data-id="900000008102" data-label="U Reinickendorfer Str." cx="17127.046" cy="-21483.707" r="0.1" fill="#6f4e9c"></circle><circle class="station" data-id="900000009104" data-label="S+U Wedding" cx="17126.663" cy="-21484.121" r="0.1" fill="#6f4e9c"></circle><circle class="station transit" data-id="900000009102" data-label="U Leopoldplatz" cx="17126.057" cy="-21484.663" r="0.13" fill="#333"></circle><circle class="station" data-id="900000009103" data-label="U Seestr." cx="17125.42" cy="-21485.237" r="0.1" fill="#6f4e9c"></circle><circle class="station" data-id="900000011101" data-label="U Rehberge" cx="17124.431" cy="-21486.13" r="0.1" fill="#6f4e9c"></circle><circle class="station" data-id="900000011102" data-label="U Afrikanische Str." cx="17123.794" cy="-21486.736" r="0.1" fill="#6f4e9c"></circle><circle class="station" data-id="900000086102" data-label="U Kurt-Schumacher-Platz" cx="17123.22" cy="-21487.119" r="0.1" fill="#6f4e9c"></circle><circle class="station" data-id="900000087101" data-label="U Scharnweberstr." cx="17121.817" cy="-21487.661" r="0.1" fill="#6f4e9c"></circle><circle class="station" data-id="900000086101" data-label="U Otisstr." cx="17121.083" cy="-21488.235" r="0.1" fill="#6f4e9c"></circle><circle class="station" data-id="900000088201" data-label="U Holzhauser Str." cx="17120.382" cy="-21489" r="0.1" fill="#6f4e9c"></circle><circle class="station" data-id="900000088202" data-label="U Borsigwerke" cx="17119.935" cy="-21489.861" r="0.1" fill="#6f4e9c"></circle><circle class="station" data-id="900000089301" data-label="U Alt-Tegel" cx="17119.393" cy="-21490.945" r="0.1" fill="#6f4e9c"></circle><circle class="station" data-id="900000083201" data-label="U Rudow" cx="17138.206" cy="-21465.628" r="0.1" fill="#3690c0"></circle><circle class="station" data-id="900000083101" data-label="U Zwickauer Damm" cx="17137.154" cy="-21466.712" r="0.1" fill="#3690c0"></circle><circle class="station" data-id="900000083102" data-label="U Wutzkyallee" cx="17136.293" cy="-21466.712" r="0.1" fill="#3690c0"></circle><circle class="station" data-id="900000082201" data-label="U Lipschitzallee" cx="17135.272" cy="-21466.935" r="0.1" fill="#3690c0"></circle><circle class="station" data-id="900000082202" data-label="U Johannisthaler Chaussee" cx="17134.443" cy="-21467.605" r="0.1" fill="#3690c0"></circle><circle class="station" data-id="900000080402" data-label="U Britz-Süd" cx="17133.901" cy="-21468.752" r="0.1" fill="#3690c0"></circle><circle class="station" data-id="900000080401" data-label="U Parchimer Allee" cx="17134.093" cy="-21469.932" r="0.1" fill="#3690c0"></circle><circle class="station" data-id="900000080201" data-label="U Blaschkoallee" cx="17133.997" cy="-21471.016" r="0.1" fill="#3690c0"></circle><circle class="station" data-id="900000080202" data-label="U Grenzallee" cx="17133.646" cy="-21472.579" r="0.1" fill="#3690c0"></circle><circle class="station" data-id="900000078272" data-label="S+U Neukölln [U7]" cx="17133.391" cy="-21473.344" r="0.1" fill="#3690c0"></circle><circle class="station" data-id="900000078103" data-label="U Karl-Marx-Str." cx="17133.2" cy="-21474.46" r="0.1" fill="#3690c0"></circle><circle class="station" data-id="900000078102" data-label="U Rathaus Neukölln" cx="17132.753" cy="-21475.13" r="0.1" fill="#3690c0"></circle><circle class="station transit" data-id="900000078101" data-label="U Hermannplatz" cx="17131.861" cy="-21475.99" r="0.13" fill="#333"></circle><circle class="station" data-id="900000016202" data-label="U Südstern" cx="17130.362" cy="-21476.309" r="0.1" fill="#3690c0"></circle><circle class="station" data-id="900000016101" data-label="U Gneisenaustr." cx="17129.246" cy="-21476.628" r="0.1" fill="#3690c0"></circle><circle class="station" data-id="900000057103" data-label="S+U Yorckstr." cx="17127.046" cy="-21476.819" r="0.1" fill="#3690c0"></circle><circle class="station" data-id="900000054102" data-label="U Kleistpark" cx="17126.217" cy="-21476.564" r="0.1" fill="#3690c0"></circle><circle class="station" data-id="900000054103" data-label="U Eisenacher Str." cx="17125.26" cy="-21476.373" r="0.1" fill="#3690c0"></circle><circle class="station transit" data-id="900000044201" data-label="U Berliner Str." cx="17123.602" cy="-21475.99" r="0.13" fill="#333"></circle><circle class="station" data-id="900000041102" data-label="U Blissestr." cx="17122.646" cy="-21475.927" r="0.1" fill="#3690c0"></circle><circle class="station" data-id="900000041101" data-label="U Fehrbelliner Platz" cx="17122.104" cy="-21476.469" r="0.1" fill="#3690c0"></circle><circle class="station" data-id="900000041201" data-label="U Konstanzer Str." cx="17121.689" cy="-21476.947" r="0.1" fill="#3690c0"></circle><circle class="station" data-id="900000023302" data-label="U Adenauerplatz" cx="17121.466" cy="-21477.904" r="0.1" fill="#3690c0"></circle><circle class="station" data-id="900000024202" data-label="U Wilmersdorfer Str." cx="17121.402" cy="-21478.828" r="0.1" fill="#3690c0"></circle><circle class="station" data-id="900000022202" data-label="U Richard-Wagner-Platz" cx="17121.466" cy="-21480.391" r="0.1" fill="#3690c0"></circle><circle class="station" data-id="900000019204" data-label="U Mierendorffplatz" cx="17121.307" cy="-21481.666" r="0.1" fill="#3690c0"></circle><circle class="station" data-id="900000020201" data-label="S+U Jungfernheide" cx="17120.733" cy="-21482.304" r="0.1" fill="#3690c0"></circle><circle class="station" data-id="900000018101" data-label="U Jakob-Kaiser-Platz" cx="17120.254" cy="-21483.26" r="0.1" fill="#3690c0"></circle><circle class="station" data-id="900000018102" data-label="U Halemweg" cx="17119.617" cy="-21483.228" r="0.1" fill="#3690c0"></circle><circle class="station" data-id="900000035101" data-label="U Siemensdamm" cx="17118.437" cy="-21483.26" r="0.1" fill="#3690c0"></circle><circle class="station" data-id="900000036101" data-label="U Rohrdamm" cx="17117.512" cy="-21483.26" r="0.1" fill="#3690c0"></circle><circle class="station" data-id="900000034101" data-label="U Paulsternstr." cx="17116.269" cy="-21483.42" r="0.1" fill="#3690c0"></circle><circle class="station" data-id="900000034102" data-label="U Haselhorst" cx="17114.802" cy="-21483.515" r="0.1" fill="#3690c0"></circle><circle class="station" data-id="900000033101" data-label="U Zitadelle" cx="17113.526" cy="-21483.356" r="0.1" fill="#3690c0"></circle><circle class="station" data-id="900000029301" data-label="U Altstadt Spandau" cx="17112.538" cy="-21483.579" r="0.1" fill="#3690c0"></circle><circle class="station" data-id="900000029302" data-label="S+U Rathaus Spandau" cx="17111.932" cy="-21483.101" r="0.1" fill="#3690c0"></circle><circle class="station" data-id="900000079221" data-label="S+U Hermannstr." cx="17132.466" cy="-21473.121" r="0.1" fill="#0a3c85"></circle><circle class="station" data-id="900000079201" data-label="U Leinestr." cx="17132.18" cy="-21473.95" r="0.1" fill="#0a3c85"></circle><circle class="station" data-id="900000079202" data-label="U Boddinstr." cx="17131.956" cy="-21474.938" r="0.1" fill="#0a3c85"></circle><circle class="station" data-id="900000016201" data-label="U Schönleinstr." cx="17131.637" cy="-21476.883" r="0.1" fill="#0a3c85"></circle><circle class="station" data-id="900000013101" data-label="U Moritzplatz" cx="17130.649" cy="-21478.446" r="0.1" fill="#0a3c85"></circle><circle class="station" data-id="900000100008" data-label="U Heinrich-Heine-Str." cx="17131.095" cy="-21479.466" r="0.1" fill="#0a3c85"></circle><circle class="station" data-id="900000100004" data-label="S+U Jannowitzbrücke" cx="17131.255" cy="-21480.136" r="0.1" fill="#0a3c85"></circle><circle class="station transit" data-id="900000100705" data-label="S+U Alexanderplatz [U8]" cx="17130.745" cy="-21481.028" r="0.13" fill="#333"></circle><circle class="station" data-id="900000100051" data-label="U Weinmeisterstr." cx="17130.139" cy="-21481.57" r="0.1" fill="#0a3c85"></circle><circle class="station" data-id="900000100023" data-label="U Rosenthaler Platz" cx="17129.788" cy="-21482.208" r="0.1" fill="#0a3c85"></circle><circle class="station" data-id="900000007110" data-label="U Bernauer Str." cx="17129.342" cy="-21483.42" r="0.1" fill="#0a3c85"></circle><circle class="station" data-id="900000007103" data-label="U Voltastr." cx="17129.055" cy="-21483.994" r="0.1" fill="#0a3c85"></circle><circle class="station" data-id="900000007102" data-label="S+U Gesundbrunnen" cx="17128.64" cy="-21484.982" r="0.1" fill="#0a3c85"></circle><circle class="station" data-id="900000009203" data-label="U Pankstr." cx="17128.066" cy="-21485.492" r="0.1" fill="#0a3c85"></circle><circle class="station transit" data-id="900000009202" data-label="U Osloer Str." cx="17127.301" cy="-21486.162" r="0.13" fill="#333"></circle><circle class="station" data-id="900000085202" data-label="U Franz-Neumann-Platz" cx="17126.504" cy="-21487.182" r="0.1" fill="#0a3c85"></circle><circle class="station" data-id="900000085203" data-label="U Residenzstr." cx="17126.185" cy="-21488.203" r="0.1" fill="#0a3c85"></circle><circle class="station" data-id="900000085104" data-label="U Paracelsus-Bad" cx="17125.005" cy="-21488.745" r="0.1" fill="#0a3c85"></circle><circle class="station" data-id="900000086160" data-label="U Lindauer Allee" cx="17124.272" cy="-21488.872" r="0.1" fill="#0a3c85"></circle><circle class="station" data-id="900000096458" data-label="S+U Karl-Bonhoeffer-Nervenklinik" cx="17123.73" cy="-21489.255" r="0.1" fill="#0a3c85"></circle><circle class="station" data-id="900000096410" data-label="U Rathaus Reinickendorf" cx="17123.06" cy="-21490.722" r="0.1" fill="#0a3c85"></circle><circle class="station" data-id="900000096197" data-label="S+U Wittenau [U8]" cx="17123.889" cy="-21491.806" r="0.1" fill="#0a3c85"></circle><circle class="station" data-id="900000062781" data-label="S+U Rathaus Steglitz [U9]" cx="17122.582" cy="-21471.558" r="0.1" fill="#ff7300"></circle><circle class="station" data-id="900000062203" data-label="U Schloßstr." cx="17122.996" cy="-21472.228" r="0.1" fill="#ff7300"></circle><circle class="station" data-id="900000061101" data-label="U Walther-Schreiber-Platz" cx="17123.315" cy="-21472.802" r="0.1" fill="#ff7300"></circle><circle class="station" data-id="900000061102" data-label="U Friedrich-Wilhelm-Platz" cx="17123.347" cy="-21473.727" r="0.1" fill="#ff7300"></circle><circle class="station" data-id="900000044202" data-label="S+U Bundesplatz" cx="17123.379" cy="-21474.587" r="0.1" fill="#ff7300"></circle><circle class="station" data-id="900000043201" data-label="U Güntzelstr." cx="17123.57" cy="-21476.724" r="0.1" fill="#ff7300"></circle><circle class="station" data-id="900000023203" data-label="U Kurfürstendamm" cx="17123.602" cy="-21478.446" r="0.1" fill="#ff7300"></circle><circle class="station" data-id="900000003101" data-label="U Hansaplatz" cx="17124.559" cy="-21480.518" r="0.1" fill="#ff7300"></circle><circle class="station" data-id="900000003104" data-label="U Turmstr." cx="17124.463" cy="-21481.666" r="0.1" fill="#ff7300"></circle><circle class="station" data-id="900000002201" data-label="U Birkenstr." cx="17124.463" cy="-21482.591" r="0.1" fill="#ff7300"></circle><circle class="station" data-id="900000001201" data-label="S+U Westhafen" cx="17124.686" cy="-21483.165" r="0.1" fill="#ff7300"></circle><circle class="station" data-id="900000009101" data-label="U Amrumer Str." cx="17125.197" cy="-21484.026" r="0.1" fill="#ff7300"></circle><circle class="station" data-id="900000009201" data-label="U Nauener Platz" cx="17126.791" cy="-21485.397" r="0.1" fill="#ff7300"></circle></g></svg>